<?xml version="1.0" encoding="utf-8"?>
<!-- Generator: Adobe Illustrator 20.0.0, SVG Export Plug-In . SVG Version: 6.00 Build 0)  -->
<svg version="1.1" id="Layer_1" xmlns="http://www.w3.org/2000/svg" xmlns:xlink="http://www.w3.org/1999/xlink" x="0px" y="0px"
	 viewBox="0 0 600 600" style="enable-background:new 0 0 600 600;" xml:space="preserve">
<style type="text/css">
	.st0{fill:url(#SVGID_1_);}
	.st1{fill:url(#SVGID_2_);}
	.st2{fill:url(#SVGID_3_);}
	.st3{fill:url(#SVGID_4_);}
	.st4{fill:url(#SVGID_5_);}
	.st5{fill:url(#SVGID_6_);}
	.st6{fill:url(#SVGID_7_);}
	.st7{fill:url(#SVGID_8_);}
	.st8{fill:url(#SVGID_9_);}
	.st9{fill:#FFFFFF;stroke:#A7A9AC;stroke-miterlimit:10;}
	.st10{font-family:'MongolianBaiti';}
	.st11{font-size:108.4499px;}
</style>
<linearGradient id="SVGID_1_" gradientUnits="userSpaceOnUse" x1="290.2" y1="59.8" x2="290.2" y2="493.4">
	<stop  offset="0" style="stop-color:#FFFFFF"/>
	<stop  offset="0.2736" style="stop-color:#D7D9DA"/>
	<stop  offset="0.8893" style="stop-color:#808285"/>
	<stop  offset="1" style="stop-color:#717375"/>
</linearGradient>
<circle class="st0" cx="290.2" cy="276.6" r="216.8"/>
<linearGradient id="SVGID_2_" gradientUnits="userSpaceOnUse" x1="290.2" y1="59.8" x2="290.2" y2="493.4">
	<stop  offset="0" style="stop-color:#FFFFFF"/>
	<stop  offset="0.2736" style="stop-color:#D7D9DA"/>
	<stop  offset="0.8893" style="stop-color:#808285"/>
	<stop  offset="1" style="stop-color:#717375"/>
</linearGradient>
<circle class="st1" cx="290.2" cy="276.6" r="216.8"/>
<linearGradient id="SVGID_3_" gradientUnits="userSpaceOnUse" x1="290.2" y1="62.7998" x2="290.2" y2="490.4004">
	<stop  offset="0" style="stop-color:#FFFFFF"/>
	<stop  offset="0.4602" style="stop-color:#D7D9DA"/>
	<stop  offset="1" style="stop-color:#A9ABAE"/>
</linearGradient>
<path class="st2" d="M290.2,490.4c-117.9,0-213.8-95.9-213.8-213.8c0-57.1,22.2-110.8,62.6-151.2c40.4-40.4,94.1-62.6,151.2-62.6
	c57.1,0,110.8,22.2,151.2,62.6c40.4,40.4,62.6,94.1,62.6,151.2C504,394.5,408.1,490.4,290.2,490.4z"/>
<linearGradient id="SVGID_4_" gradientUnits="userSpaceOnUse" x1="290.2" y1="102.7998" x2="290.2" y2="450.4004">
	<stop  offset="0" style="stop-color:#717375"/>
	<stop  offset="0.1107" style="stop-color:#808285"/>
	<stop  offset="0.7264" style="stop-color:#D7D9DA"/>
	<stop  offset="1" style="stop-color:#FFFFFF"/>
</linearGradient>
<path class="st3" d="M290.2,450.4c-95.8,0-173.8-78-173.8-173.8c0-46.4,18.1-90.1,50.9-122.9c32.8-32.8,76.5-50.9,122.9-50.9
	c46.4,0,90.1,18.1,122.9,50.9c32.8,32.8,50.9,76.5,50.9,122.9C464,372.4,386,450.4,290.2,450.4z"/>
<linearGradient id="SVGID_5_" gradientUnits="userSpaceOnUse" x1="290.2" y1="102.7998" x2="290.2" y2="450.4004">
	<stop  offset="0" style="stop-color:#717375"/>
	<stop  offset="0.1107" style="stop-color:#808285"/>
	<stop  offset="0.7264" style="stop-color:#D7D9DA"/>
	<stop  offset="1" style="stop-color:#FFFFFF"/>
</linearGradient>
<path class="st4" d="M290.2,450.4c-95.8,0-173.8-78-173.8-173.8c0-46.4,18.1-90.1,50.9-122.9c32.8-32.8,76.5-50.9,122.9-50.9
	c46.4,0,90.1,18.1,122.9,50.9c32.8,32.8,50.9,76.5,50.9,122.9C464,372.4,386,450.4,290.2,450.4z"/>
<linearGradient id="SVGID_6_" gradientUnits="userSpaceOnUse" x1="290.2" y1="105.7998" x2="290.2" y2="447.4004">
	<stop  offset="0" style="stop-color:#FFFFFF"/>
	<stop  offset="0.2736" style="stop-color:#D7D9DA"/>
	<stop  offset="0.8893" style="stop-color:#808285"/>
	<stop  offset="1" style="stop-color:#717375"/>
</linearGradient>
<path class="st5" d="M290.2,447.4c-94.2,0-170.8-76.6-170.8-170.8c0-45.6,17.8-88.5,50-120.8c32.3-32.3,75.2-50,120.8-50
	c45.6,0,88.5,17.8,120.8,50c32.3,32.3,50,75.2,50,120.8C461,370.8,384.4,447.4,290.2,447.4z"/>
<linearGradient id="SVGID_7_" gradientUnits="userSpaceOnUse" x1="290.2" y1="105.7998" x2="290.2" y2="447.4004">
	<stop  offset="0" style="stop-color:#FFFFFF"/>
	<stop  offset="0.4834" style="stop-color:#D7D9DA"/>
	<stop  offset="1" style="stop-color:#ADAFB2"/>
</linearGradient>
<path class="st6" d="M290.2,447.4c-94.2,0-170.8-76.6-170.8-170.8c0-45.6,17.8-88.5,50-120.8c32.3-32.3,75.2-50,120.8-50
	c45.6,0,88.5,17.8,120.8,50c32.3,32.3,50,75.2,50,120.8C461,370.8,384.4,447.4,290.2,447.4z"/>
<linearGradient id="SVGID_8_" gradientUnits="userSpaceOnUse" x1="290.0929" y1="62.7998" x2="290.0929" y2="276.6">
	<stop  offset="0" style="stop-color:#F6F6F6"/>
	<stop  offset="1" style="stop-color:#F1F2F2"/>
</linearGradient>
<path class="st7" d="M82.4,225.8c47.8,30.9,122.7,50.8,207,50.8c85,0,160.6-20.3,208.3-51.7c-9.2-37.3-28.5-71.6-56.4-99.5
	C401,85,347.3,62.8,290.2,62.8c-57.1,0-110.8,22.2-151.2,62.6C110.9,153.5,91.6,188.1,82.4,225.8z"/>
<linearGradient id="SVGID_9_" gradientUnits="userSpaceOnUse" x1="290.1443" y1="108.7998" x2="290.1443" y2="276.6">
	<stop  offset="0" style="stop-color:#BEC0C2"/>
	<stop  offset="0.626" style="stop-color:#E7E8E9"/>
	<stop  offset="1" style="stop-color:#FFFFFF"/>
</linearGradient>
<path class="st8" d="M124.9,247.5c44.9,18.2,102.2,29.1,164.5,29.1c63,0,120.8-11.1,166-29.7c-6-33.5-22-64.4-46.5-89
	c-31.7-31.7-73.8-49.1-118.7-49.1c-44.8,0-87,17.5-118.7,49.1C146.8,182.7,130.8,213.7,124.9,247.5z"/>
<text transform="matrix(0.7976 0 0 1 147.7998 377.1816)" class="st9 st10 st11">ABOUT</text>
</svg>
