<svg id="Layer_1" data-name="Layer 1" xmlns="http://www.w3.org/2000/svg" xmlns:xlink="http://www.w3.org/1999/xlink" viewBox="0 0 433.6 433.6"><defs><style>.cls-1{fill:url(#linear-gradient);}.cls-2{fill:url(#linear-gradient-3);}.cls-3{fill:url(#linear-gradient-4);}.cls-4{fill:url(#linear-gradient-5);}.cls-5{fill:url(#linear-gradient-6);}.cls-6{fill:url(#linear-gradient-7);}.cls-7{opacity:0.87;fill:url(#linear-gradient-8);}.cls-8{fill:url(#linear-gradient-9);}</style><linearGradient id="linear-gradient" x1="216.8" x2="216.8" y2="433.6" gradientUnits="userSpaceOnUse"><stop offset="0" stop-color="#fff"/><stop offset="0.33" stop-color="#d3d4d5"/><stop offset="1" stop-color="#717375"/></linearGradient><linearGradient id="linear-gradient-3" x1="290.2" y1="62.8" x2="290.2" y2="490.4" gradientUnits="userSpaceOnUse"><stop offset="0" stop-color="#fff"/><stop offset="0.52" stop-color="#d4d5d6"/><stop offset="1" stop-color="#a9abae"/></linearGradient><linearGradient id="linear-gradient-4" x1="290.2" y1="102.8" x2="290.2" y2="450.4" gradientUnits="userSpaceOnUse"><stop offset="0" stop-color="#717375"/><stop offset="0.67" stop-color="#d3d4d5"/><stop offset="1" stop-color="#fff"/></linearGradient><linearGradient id="linear-gradient-5" x1="290.2" y1="102.8" x2="290.2" y2="450.4" gradientUnits="userSpaceOnUse"><stop offset="0" stop-color="#717375"/><stop offset="0.34" stop-color="#888a8d"/><stop offset="1" stop-color="#b3b5b8"/></linearGradient><linearGradient id="linear-gradient-6" x1="290.2" y1="105.8" x2="290.2" y2="447.4" xlink:href="#linear-gradient"/><linearGradient id="linear-gradient-7" x1="290.2" y1="105.8" x2="290.2" y2="447.4" gradientUnits="userSpaceOnUse"><stop offset="0" stop-color="#fff"/><stop offset="0.46" stop-color="#d3d4d6"/><stop offset="1" stop-color="#9b9da0"/></linearGradient><linearGradient id="linear-gradient-8" x1="290.09" y1="62.8" x2="290.09" y2="276.6" gradientUnits="userSpaceOnUse"><stop offset="0" stop-color="#f6f6f6"/><stop offset="1" stop-color="#f1f2f2"/></linearGradient><linearGradient id="linear-gradient-9" x1="290.14" y1="108.8" x2="290.14" y2="276.6" gradientUnits="userSpaceOnUse"><stop offset="0" stop-color="#d1d3d4"/><stop offset="0.43" stop-color="#e6e8e8"/><stop offset="1" stop-color="#fff"/></linearGradient></defs><title>circle button</title><circle class="cls-1" cx="216.8" cy="216.8" r="216.8"/><circle class="cls-1" cx="216.8" cy="216.8" r="216.8"/><path class="cls-2" d="M290.2,490.4c-117.89,0-213.8-95.91-213.8-213.8a213.8,213.8,0,1,1,427.6,0C504,394.49,408.09,490.4,290.2,490.4Z" transform="translate(-73.4 -59.8)"/><path class="cls-3" d="M290.2,450.4c-95.83,0-173.8-78-173.8-173.8a173.8,173.8,0,1,1,347.6,0C464,372.43,386,450.4,290.2,450.4Z" transform="translate(-73.4 -59.8)"/><path class="cls-4" d="M290.2,450.4c-95.83,0-173.8-78-173.8-173.8a173.8,173.8,0,1,1,347.6,0C464,372.43,386,450.4,290.2,450.4Z" transform="translate(-73.4 -59.8)"/><path class="cls-5" d="M290.2,447.4c-94.18,0-170.8-76.62-170.8-170.8a170.8,170.8,0,1,1,341.6,0C461,370.78,384.38,447.4,290.2,447.4Z" transform="translate(-73.4 -59.8)"/><path class="cls-6" d="M290.2,447.4c-94.18,0-170.8-76.62-170.8-170.8a170.8,170.8,0,1,1,341.6,0C461,370.78,384.38,447.4,290.2,447.4Z" transform="translate(-73.4 -59.8)"/><path class="cls-7" d="M82.45,225.81c47.85,30.9,122.75,50.79,207,50.79,85,0,160.56-20.28,208.34-51.7a213.91,213.91,0,0,0-415.29.9Z" transform="translate(-73.4 -59.8)"/><path class="cls-8" d="M124.9,247.5c44.94,18.2,102.17,29.1,164.5,29.1,63,0,120.83-11.14,166-29.7a167.85,167.85,0,0,0-330.49.6Z" transform="translate(-73.4 -59.8)"/></svg>