<svg id="Layer_2" data-name="Layer 2" xmlns="http://www.w3.org/2000/svg" xmlns:xlink="http://www.w3.org/1999/xlink" viewBox="0 0 221.21 208.24"><defs><style>.cls-1{fill:url(#linear-gradient);}.cls-2{fill:url(#linear-gradient-2);}.cls-3{fill:url(#linear-gradient-3);}.cls-4{fill:url(#linear-gradient-4);}.cls-5{fill:url(#linear-gradient-5);}.cls-6{fill:url(#linear-gradient-6);}.cls-7{fill:url(#linear-gradient-7);}.cls-8{fill:url(#linear-gradient-8);}.cls-9{fill:url(#linear-gradient-9);}.cls-10{fill:url(#linear-gradient-10);}.cls-11{fill:url(#linear-gradient-11);}.cls-12{fill:url(#linear-gradient-12);}.cls-13{fill:url(#linear-gradient-13);}.cls-14{fill:url(#linear-gradient-14);}.cls-15{fill:url(#linear-gradient-15);}.cls-16{fill:url(#linear-gradient-16);}.cls-17{fill:url(#linear-gradient-17);}.cls-18{fill:url(#linear-gradient-18);}.cls-19{fill:url(#linear-gradient-19);}.cls-20{fill:url(#linear-gradient-20);}.cls-21{fill:url(#linear-gradient-21);}.cls-22{fill:url(#linear-gradient-22);}.cls-23{fill:url(#linear-gradient-23);}.cls-24{fill:url(#linear-gradient-24);}</style><linearGradient id="linear-gradient" x1="-2.29" y1="-13.02" x2="-1.88" y2="-13.02" gradientTransform="matrix(0, 10.21, 10.21, 0, 499.67, 255.46)" gradientUnits="userSpaceOnUse"><stop offset="0" stop-color="#fff"/><stop offset="0.45" stop-color="#bcbdbe"/><stop offset="0.82" stop-color="#8c8d8f"/><stop offset="1" stop-color="#797b7d"/></linearGradient><linearGradient id="linear-gradient-2" x1="-2.26" y1="-12.44" x2="-1.84" y2="-12.44" gradientTransform="matrix(0, 10.39, 10.39, 0, 491.86, 255.48)" xlink:href="#linear-gradient"/><linearGradient id="linear-gradient-3" x1="-2.51" y1="-0.9" x2="-1.97" y2="-0.9" gradientTransform="matrix(32.81, 18.94, 18.94, -32.81, 426.58, 243.76)" gradientUnits="userSpaceOnUse"><stop offset="0" stop-color="#fff"/><stop offset="0.85" stop-color="#5b5c5e"/><stop offset="1" stop-color="#5b5c5e"/></linearGradient><linearGradient id="linear-gradient-4" x1="-1.75" y1="-5.62" x2="-1.34" y2="-5.62" gradientTransform="matrix(0, 16.97, 16.97, 0, 419.58, 266.13)" gradientUnits="userSpaceOnUse"><stop offset="0" stop-color="#fff"/><stop offset="0.06" stop-color="#e2e2e3"/><stop offset="0.13" stop-color="#c2c3c4"/><stop offset="0.21" stop-color="#a7a8aa"/><stop offset="0.3" stop-color="#939496"/><stop offset="0.4" stop-color="#848688"/><stop offset="0.52" stop-color="#7c7e80"/><stop offset="0.72" stop-color="#797b7d"/><stop offset="1" stop-color="#797b7d"/></linearGradient><linearGradient id="linear-gradient-5" x1="-2.58" y1="-8.59" x2="-2.16" y2="-8.59" gradientTransform="matrix(0, 11.31, 11.31, 0, 423.35, 265.2)" xlink:href="#linear-gradient"/><linearGradient id="linear-gradient-6" x1="-3.45" y1="-2.86" x2="-2.91" y2="-2.86" gradientTransform="matrix(37.95, 0, 0, -37.95, 494.96, 30.13)" gradientUnits="userSpaceOnUse"><stop offset="0" stop-color="#fff"/><stop offset="0.18" stop-color="#e0e1e1"/><stop offset="0.4" stop-color="#bfc1c2"/><stop offset="0.62" stop-color="#a8aaac"/><stop offset="0.83" stop-color="#9a9c9f"/><stop offset="1" stop-color="#95979a"/></linearGradient><linearGradient id="linear-gradient-7" x1="-3.88" y1="-3.25" x2="-3.35" y2="-3.25" gradientTransform="matrix(33.38, 0, 0, -33.38, 492.26, 30.04)" gradientUnits="userSpaceOnUse"><stop offset="0" stop-color="#fff"/><stop offset="0.22" stop-color="#f9f9f9"/><stop offset="0.52" stop-color="#e7e8e9"/><stop offset="0.87" stop-color="#cbccce"/><stop offset="1" stop-color="#bec0c2"/></linearGradient><linearGradient id="linear-gradient-8" x1="-2.99" y1="-1.06" x2="-2.46" y2="-1.06" gradientTransform="matrix(34.59, 0, 0, -34.59, 436.77, 152.73)" xlink:href="#linear-gradient-3"/><linearGradient id="linear-gradient-9" x1="-3.53" y1="-0.79" x2="-3" y2="-0.79" gradientTransform="matrix(33.54, -19.36, -19.36, -33.54, 435.03, 55.57)" xlink:href="#linear-gradient-3"/><linearGradient id="linear-gradient-10" x1="-2.58" y1="-3.06" x2="-2.05" y2="-3.06" gradientTransform="matrix(35.92, 0, 0, -35.92, 413.61, 27.68)" xlink:href="#linear-gradient-6"/><linearGradient id="linear-gradient-11" x1="0.15" y1="0.47" x2="0.56" y2="0.47" gradientTransform="matrix(0, -264.55, -264.55, 0, 482.71, 283.1)" gradientUnits="userSpaceOnUse"><stop offset="0" stop-color="#a3a5a8"/><stop offset="0.1" stop-color="#a9abae"/><stop offset="0.24" stop-color="#bbbcbe"/><stop offset="0.41" stop-color="#d7d8d9"/><stop offset="0.48" stop-color="#e8e8e9"/><stop offset="0.74" stop-color="#d6d7d8"/><stop offset="1" stop-color="#bec0c2"/></linearGradient><linearGradient id="linear-gradient-12" x1="-3.28" y1="-3.99" x2="-2.75" y2="-3.99" gradientTransform="matrix(28.2, 0, 0, -28.2, 413.61, 23.62)" xlink:href="#linear-gradient-6"/><linearGradient id="linear-gradient-13" x1="-0.13" y1="1.14" x2="0.73" y2="1.14" gradientTransform="matrix(28.71, 0, 0, -28.71, 331.16, 283.49)" gradientUnits="userSpaceOnUse"><stop offset="0" stop-color="#fff"/><stop offset="0.22" stop-color="#dfdfe0"/><stop offset="0.71" stop-color="#8e8f90"/><stop offset="1" stop-color="#5b5c5e"/></linearGradient><linearGradient id="linear-gradient-14" x1="-0.03" y1="0.85" x2="0.83" y2="0.85" gradientTransform="matrix(38.28, 0, 0, -38.28, 312.99, 282.87)" xlink:href="#linear-gradient-13"/><linearGradient id="linear-gradient-15" x1="-0.28" y1="-0.43" x2="0.53" y2="-0.43" gradientTransform="matrix(-45.91, 26.51, 26.51, 45.91, 287.91, 262.94)" gradientUnits="userSpaceOnUse"><stop offset="0" stop-color="#fff"/><stop offset="0.1" stop-color="#eeeeef"/><stop offset="0.72" stop-color="#8f9091"/><stop offset="1" stop-color="#696a6c"/></linearGradient><linearGradient id="linear-gradient-16" x1="0.64" y1="2.45" x2="1.5" y2="2.45" gradientTransform="matrix(15.81, 0, 0, -15.81, 232.55, 301.39)" xlink:href="#linear-gradient-13"/><linearGradient id="linear-gradient-17" x1="-1.61" y1="-1.79" x2="-0.67" y2="-1.79" gradientTransform="matrix(-13.62, 7.86, 7.86, 13.62, 252.04, 292.99)" gradientUnits="userSpaceOnUse"><stop offset="0" stop-color="#999b9e"/><stop offset="0.01" stop-color="#999b9e"/><stop offset="0.31" stop-color="#78787b"/><stop offset="1" stop-color="#302d2f"/></linearGradient><linearGradient id="linear-gradient-18" x1="-0.06" y1="-0.61" x2="0.8" y2="-0.61" gradientTransform="matrix(69.96, 0, 0, -69.96, 335.13, 54.7)" xlink:href="#linear-gradient-13"/><linearGradient id="linear-gradient-19" x1="0.02" y1="-0.86" x2="0.88" y2="-0.86" gradientTransform="matrix(59.49, 0, 0, -59.49, 297.85, 28.96)" xlink:href="#linear-gradient-13"/><linearGradient id="linear-gradient-20" x1="0.09" y1="0.02" x2="0.78" y2="0.02" gradientTransform="matrix(-106.38, -184.25, -184.25, 106.38, 328.51, 234.03)" gradientUnits="userSpaceOnUse"><stop offset="0" stop-color="#fff"/><stop offset="0.37" stop-color="#aeacad"/><stop offset="0.8" stop-color="#545153"/><stop offset="1" stop-color="#302d2f"/></linearGradient><linearGradient id="linear-gradient-21" x1="0.21" y1="-0.97" x2="1.07" y2="-0.97" gradientTransform="matrix(53.13, 0, 0, -53.13, 223.79, 27.19)" xlink:href="#linear-gradient-13"/><linearGradient id="linear-gradient-22" x1="0.38" y1="-1.38" x2="1.24" y2="-1.38" gradientTransform="matrix(37.24, 0, 0, -37.24, 202.94, 27.32)" xlink:href="#linear-gradient-13"/><linearGradient id="linear-gradient-23" x1="0.14" y1="-0.01" x2="0.81" y2="-0.01" gradientTransform="matrix(0, -310.46, -310.46, 0, 287.48, 312.09)" gradientUnits="userSpaceOnUse"><stop offset="0" stop-color="#979a9c"/><stop offset="0.18" stop-color="#afb2b3"/><stop offset="0.51" stop-color="#e3e4e5"/><stop offset="1" stop-color="#999b9e"/></linearGradient><linearGradient id="linear-gradient-24" x1="1.16" y1="-2.54" x2="2.02" y2="-2.54" gradientTransform="matrix(18.31, 0, 0, -18.31, 152.82, 42.4)" xlink:href="#linear-gradient-13"/></defs><title>Logo</title><path class="cls-1" d="M372.25,236.26l-12.85-3.39-1.8-.48,1.9-.19a9.48,9.48,0,0,1,1.59-.16,4.5,4.5,0,0,1,.7.18l1.64.43,9.76,2.54,2.65.69Z" transform="translate(-174 -61.63)"/><path class="cls-2" d="M367.41,235.92l-12.71-3.4-1.82-.49a13.2,13.2,0,0,0,4.71.35l14.66,3.87A13.3,13.3,0,0,1,367.41,235.92Z" transform="translate(-174 -61.63)"/><path class="cls-3" d="M334.82,240.32l-13.51-4.26c3.87-.39,7.49-1.74,9.63-4.37,1.22-1.47,1.52-3.47,1.8-5.17a51,51,0,0,0,.57-5.84l14.11,3.45a54.25,54.25,0,0,1-.68,6.19c-.32,1.77-.65,3.83-1.92,5.37C342.59,238.43,338.86,239.88,334.82,240.32Z" transform="translate(-174 -61.63)"/><path class="cls-4" d="M330.77,243.47l-6.33-2.1L320,239.88l-1.65-.55a3.21,3.21,0,0,1-.81-.27c-.19-.17,0-.76,0-1l.06-1.62,6.44,2.07,4.48,1.44,1.62.52a3,3,0,0,1,.79.25c.18.18,0,.9,0,1.13Z" transform="translate(-174 -61.63)"/><path class="cls-5" d="M330.9,240.74,319.17,237l-1.65-.53,1.74-.18a13.24,13.24,0,0,1,2-.2,2.1,2.1,0,0,1,.48.13l1.39.44,9.11,2.87,2.57.81Z" transform="translate(-174 -61.63)"/><path class="cls-6" d="M384.37,138.36l-7.68.38c-2.88.14-5.77.35-8.65.43-1.27,0-2.56-.05-3.83-.08l7.73-.39c2.83-.14,5.68-.37,8.52-.43C381.75,138.25,383.07,138.33,384.37,138.36Z" transform="translate(-174 -61.63)"/><path class="cls-7" d="M362.78,139.11l14.7-.74c1-.05,2-.12,3-.1l-16.3.82C363.73,139.08,363.26,139.09,362.78,139.11Z" transform="translate(-174 -61.63)"/><path class="cls-8" d="M347.42,224.13l-12-2.93-1.27-.31a3.41,3.41,0,0,1-.72-.17c-.17-.09-.07,0-.12-.14a1.67,1.67,0,0,1,0-.5l0-.88.33-6.8.52-10.64.62-12.62.63-12.81.55-11.22.38-7.75.1-2c0-.1,0-.34,0-.43s.09-.07.31-.07l13.58,0h1.26l-.11,1.86-.31,5-.46,7.47-.56,9.08-.61,9.95-.62,10-.58,9.37-.49,7.95-.35,5.69-.17,2.7Z" transform="translate(-174 -61.63)"/><path class="cls-9" d="M351.67,154.89l-15.15,0c.1-2.08.18-4.16.14-6.24a19.23,19.23,0,0,0-.42-4,5.52,5.52,0,0,0-1.2-2.5,9.54,9.54,0,0,0-2.29-1.76,16.26,16.26,0,0,0-7.65-2.14l15-.91a16.45,16.45,0,0,1,7.9,2.27,9.74,9.74,0,0,1,2.34,1.86,5.79,5.79,0,0,1,1.21,2.64,20.61,20.61,0,0,1,.38,4.22C351.92,150.5,351.81,152.69,351.67,154.89Z" transform="translate(-174 -61.63)"/><path class="cls-10" d="M340.08,137.3l-7.38.45c-2.52.15-5.06.41-7.59.46-1.36,0-2.74-.06-4.11-.09l7.46-.47c2.44-.15,4.92-.41,7.37-.46C337.24,137.17,338.67,137.27,340.08,137.3Z" transform="translate(-174 -61.63)"/><path class="cls-11" d="M384.64,135.3l-.27,3.07-3.86-.09a15.34,15.34,0,0,0-5.85.89,10,10,0,0,0-4.17,3,7.62,7.62,0,0,0-1.38,2.73,24.86,24.86,0,0,0-.78,3.19,62.89,62.89,0,0,0-.82,6.83l-5.07,67.89q-.07.88-.12,1.67t-.08,1.5q0,.71-.05,1.33t0,1.16q0,.54,0,1t.06.92q0,.43.1.82t.14.71a5.54,5.54,0,0,0,.19.63,4.41,4.41,0,0,0,.24.55,3.65,3.65,0,0,0,.3.48,3.2,3.2,0,0,0,.36.4,5.15,5.15,0,0,0,.42.36q.23.17.48.34l.55.32.61.3a13,13,0,0,0,6.63,1l3.59-.39-.23,2.58-44.84,5,.13-2.73,3.92-.43a22.51,22.51,0,0,0,3.21-.57,15.93,15.93,0,0,0,2.73-1,12.14,12.14,0,0,0,2.26-1.35,10.54,10.54,0,0,0,1.8-1.75c1.27-1.53,1.61-3.59,1.92-5.37a54.25,54.25,0,0,0,.68-6.19l4.26-69.25q.06-1,.11-1.92t.08-1.74q0-.82,0-1.55t0-1.37q0-.64,0-1.22t-.07-1.11q0-.53-.12-1t-.16-.89q-.09-.42-.21-.79a6.58,6.58,0,0,0-.27-.7,5.16,5.16,0,0,0-.33-.62,4.21,4.21,0,0,0-.39-.53q-.21-.24-.46-.48t-.54-.47q-.29-.23-.63-.46t-.71-.45a16.45,16.45,0,0,0-7.9-2.27l-4.26-.1.16-3.28Z" transform="translate(-174 -61.63)"/><path class="cls-12" d="M335.82,137.2l-13,.81-1.82.11,0-1.34,0-1c0-.14-.07-.55,0-.68s.25-.07.43-.09l1.49-.11,10.11-.75,2.84-.21Z" transform="translate(-174 -61.63)"/><path class="cls-13" d="M344.75,255.16l-15.16-7.22-2.15-1,6-.61a3.79,3.79,0,0,1,1.18-.06,8.24,8.24,0,0,1,1.39.64l12.41,5.74,3.72,1.72Z" transform="translate(-174 -61.63)"/><path class="cls-14" d="M328.45,253.31l-14.56-7.22-2.08-1c4.6,2.28,10.39,2.38,15.63,1.85l17.31,8.24C339.31,255.75,333.25,255.69,328.45,253.31Z" transform="translate(-174 -61.63)"/><path class="cls-15" d="M264.42,263.88l-13.68-9.19c7.82-.79,15.69-3.21,19.89-8.72,2-2.61,2.32-6.11,2.56-9.09a76,76,0,0,0,0-10.21l15,7.48a80.62,80.62,0,0,1-.1,10.87c-.27,3.12-.61,6.77-2.75,9.52C280.93,260.35,272.68,263,264.42,263.88Z" transform="translate(-174 -61.63)"/><path class="cls-16" d="M256.2,269.87l-7.13-5.14-4.54-3.28c-.52-.38-1.46-.81-1.59-1.36a17,17,0,0,1-.19-2.58l-.15-2,7.27,5.09,4.63,3.24a9.3,9.3,0,0,1,1.17.82c.21.21.19.23.22.54Z" transform="translate(-174 -61.63)"/><path class="cls-17" d="M255.87,264.81l-11.6-8.13-1.66-1.16,5.56-.56,1.55-.16a4.54,4.54,0,0,1,.93-.09,1.51,1.51,0,0,1,.58.32l9.83,6.6,3.36,2.25Z" transform="translate(-174 -61.63)"/><path class="cls-18" d="M391.07,114.86l-11.14-.37-7.06-.24c-.64,0-1.33,0-2-.07a1.74,1.74,0,0,1-.38,0c-.06,0-.09-.45-.1-.52q-.13-.88-.28-1.77a50.52,50.52,0,0,0-3.76-12.75,28.93,28.93,0,0,0-7.62-10.22A31.09,31.09,0,0,0,347.13,83a65.62,65.62,0,0,0-16.26-2.08L350,79.59a67.56,67.56,0,0,1,17,2.23,32,32,0,0,1,12.11,6.26,30.22,30.22,0,0,1,7.84,10.84A56.55,56.55,0,0,1,391.07,114.86Z" transform="translate(-174 -61.63)"/><path class="cls-19" d="M350,79.59l-10.24.72c-3,.21-6,.56-8.93.63-2.78.06-5.59-.1-8.36-.14l-14.62-.25-9-.16,10.63-.86c2.42-.2,4.95-.59,7.39-.55l24.45.45Z" transform="translate(-174 -61.63)"/><path class="cls-20" d="M288.2,234.15l-9.91-4.94c-1.58-.79-3.18-1.56-4.75-2.37-.36-.18-.27-.11-.35-.36a9.93,9.93,0,0,1-.13-2.35l-.27-4.84-.87-15.67-1.2-21.55-1.37-24.69-1.4-25.06-1.27-22.83-1-18-.57-10.27c0-.23-.27-1.25-.08-1.44a4.46,4.46,0,0,1,1.06-.1l3-.28,7.69-.73,4-.38.2,4.2.54,11.34.8,16.75,1,20.43,1.07,22.44,1.08,22.65,1,21.06.85,17.8.61,12.81.29,6.09Z" transform="translate(-174 -61.63)"/><path class="cls-21" d="M280.78,78.31l-9.4.89a62.61,62.61,0,0,1-6.76.6l-21.68-.37-7.87-.14,9.7-1.07a43.21,43.21,0,0,1,5.58-.47l22.84.42Z" transform="translate(-174 -61.63)"/><path class="cls-22" d="M217.13,80c5.36-.63,10.73-1.37,16.11-1.84a151.16,151.16,0,0,1,15.92-.46l-14.1,1.56a134.52,134.52,0,0,0-17.94.75Z" transform="translate(-174 -61.63)"/><path class="cls-23" d="M395.21,67.56l-.5,47.27-3.65,0q-.3-2.33-.7-4.48t-.92-4.15q-.52-2-1.14-3.82t-1.36-3.48q-.74-1.66-1.59-3.16a31.52,31.52,0,0,0-1.84-2.86,28.5,28.5,0,0,0-2.08-2.56,26.81,26.81,0,0,0-2.33-2.26,27.56,27.56,0,0,0-2.6-2,29.68,29.68,0,0,0-2.89-1.7A33.07,33.07,0,0,0,370.44,83q-1.66-.65-3.46-1.16a67.56,67.56,0,0,0-17-2.23L316.31,79l4.5,152.26q.13,4.23.51,7.62a46.44,46.44,0,0,0,1,5.93,20.06,20.06,0,0,0,1.51,4.27,8,8,0,0,0,2,2.63c4.89,3.89,12.38,4.2,18.91,3.49l7.4-.8.06,4.76-96,10.75-.34-5.06,8.55-.93a53.08,53.08,0,0,0,7-1.2,34.43,34.43,0,0,0,5.8-2,23.47,23.47,0,0,0,4.64-2.71,18.23,18.23,0,0,0,3.5-3.47c2.14-2.74,2.47-6.39,2.75-9.52a80.4,80.4,0,0,0,.1-10.87L280.78,78.31l-31.61-.58q-3.08-.06-6,0t-5.59.18q-2.71.14-5.21.38t-4.83.58q-2.32.34-4.45.85A41.18,41.18,0,0,0,219,80.9a34.74,34.74,0,0,0-3.71,1.56,30.17,30.17,0,0,0-3.34,1.9,24.89,24.89,0,0,0-3,2.31,25.8,25.8,0,0,0-2.63,2.76,28.42,28.42,0,0,0-2.28,3.21,32.87,32.87,0,0,0-1.92,3.66c-2.88,6.38-3.94,13.25-4.47,20l-8,.06-5.24-54.7Z" transform="translate(-174 -61.63)"/><path class="cls-24" d="M189.75,116.33l-9.55-.79a4,4,0,0,1-1-.09l0-.16a3.76,3.76,0,0,1-.12-1.2l-1.38-13.6-2-19.45-1.48-14.59L174,64.81c0-.15-.1-.4,0-.5a5.45,5.45,0,0,1,1.44-.37l2.56-.65,5.47-1.4,1-.26.52,5.45,1.25,13.09,1.51,15.76,1.31,13.68.63,6.63Z" transform="translate(-174 -61.63)"/></svg>